<?xml version="1.0" encoding="UTF-8"?> <!-- Generator: Adobe Illustrator 24.2.3, SVG Export Plug-In . SVG Version: 6.00 Build 0) --> <svg xmlns="http://www.w3.org/2000/svg" xmlns:xlink="http://www.w3.org/1999/xlink" version="1.1" id="Layer_1" x="0px" y="0px" viewBox="0 0 160 160" style="enable-background:new 0 0 160 160;" xml:space="preserve"> <style type="text/css"> .st0{fill:none;stroke:#000000;stroke-width:2;stroke-miterlimit:10;} .st1{fill:none;stroke:#000000;stroke-miterlimit:10;} .st2{fill:#FFFFFF;} .st3{fill:#FFFFFF;stroke:#000000;stroke-miterlimit:10;} .st4{stroke:#000000;stroke-width:0.25;} .st5{stroke:#000000;} </style> <polyline class="st0" points="30.12,117.45 33.29,126.06 24.67,129.23 "></polyline> <path class="st0" d="M128.6,71.6c16.15,6.48,26.4,16.14,26.4,26.92c0,19.52-33.58,35.35-75,35.35c-13.15,0-25.5-1.59-36.25-4.4"></path> <path class="st0" d="M32.7,125.95C15.8,119.47,5,109.59,5,98.52C5,87.74,15.25,78.08,31.4,71.6"></path> <path class="st0" d="M103.81,35.73c0-4.75-3.85-9.59-8.59-9.59H64.79c-4.75,0-8.59,4.85-8.59,9.59h-16.2 c-4.75,0-8.59,3.85-8.59,8.59v43.73c0,4.75,3.85,8.59,8.59,8.59h80.01c4.75,0,8.59-3.85,8.59-8.59V44.32c0-4.75-3.85-8.59-8.59-8.59 H103.81z"></path> <circle class="st0" cx="80" cy="64.58" r="17.42"></circle> <g> <path class="st5" d="M66.03,124.49c-1,0-1.9-0.2-2.7-0.61c-0.8-0.41-1.43-0.96-1.89-1.67c-0.46-0.71-0.69-1.51-0.69-2.42h0.56 c0,0.8,0.21,1.51,0.63,2.13c0.42,0.62,0.98,1.11,1.7,1.47c0.72,0.36,1.52,0.53,2.4,0.53c0.94,0,1.77-0.19,2.48-0.58 c0.71-0.39,1.26-0.91,1.66-1.56c0.4-0.66,0.6-1.38,0.6-2.17c0-0.85-0.23-1.6-0.68-2.24c-0.45-0.64-1.07-1.14-1.86-1.5 c-0.79-0.36-1.69-0.53-2.71-0.53h-0.28v-0.56h0.28c0.89,0,1.7-0.16,2.41-0.5c0.71-0.33,1.28-0.8,1.7-1.4 c0.42-0.6,0.63-1.32,0.63-2.14c0-0.77-0.18-1.45-0.54-2.05c-0.36-0.6-0.86-1.08-1.49-1.43c-0.63-0.35-1.37-0.52-2.21-0.52 c-0.83,0-1.56,0.18-2.21,0.53c-0.64,0.35-1.15,0.84-1.52,1.46c-0.37,0.62-0.55,1.34-0.55,2.15h-0.56c0-0.92,0.21-1.73,0.63-2.43 c0.42-0.71,0.99-1.26,1.72-1.66s1.56-0.6,2.49-0.6s1.76,0.2,2.48,0.6c0.72,0.4,1.29,0.94,1.7,1.63c0.41,0.69,0.62,1.47,0.62,2.34 c0,1.04-0.3,1.94-0.9,2.69c-0.6,0.75-1.4,1.27-2.41,1.56v0.07c1.17,0.3,2.09,0.85,2.79,1.65c0.69,0.81,1.04,1.77,1.04,2.9 c0,0.91-0.22,1.73-0.67,2.47c-0.45,0.74-1.07,1.32-1.87,1.75C67.99,124.27,67.07,124.49,66.03,124.49z"></path> <path class="st5" d="M80.75,124.49c-0.75,0-1.45-0.17-2.1-0.51c-0.64-0.34-1.2-0.86-1.68-1.54c-0.48-0.69-0.85-1.55-1.11-2.6 c-0.26-1.04-0.4-2.26-0.4-3.66c0-1.2,0.08-2.39,0.26-3.57c0.17-1.18,0.46-2.25,0.86-3.22c0.41-0.97,0.96-1.74,1.67-2.32 c0.71-0.58,1.6-0.87,2.67-0.87c0.88,0,1.65,0.2,2.3,0.6c0.66,0.4,1.17,0.95,1.56,1.65c0.38,0.7,0.6,1.52,0.66,2.45h-0.56 c-0.09-1.22-0.48-2.22-1.17-2.99c-0.69-0.77-1.62-1.15-2.8-1.15c-1.62,0-2.85,0.83-3.67,2.49c-0.82,1.66-1.24,4.05-1.24,7.18h0.07 c0.19-0.59,0.51-1.12,0.97-1.58c0.45-0.46,1-0.82,1.62-1.09c0.63-0.26,1.28-0.4,1.96-0.4c0.93,0,1.79,0.24,2.56,0.73 c0.77,0.49,1.39,1.15,1.86,1.99c0.46,0.84,0.69,1.79,0.69,2.84c0,0.99-0.21,1.9-0.63,2.75c-0.42,0.85-1.01,1.53-1.76,2.04 C82.62,124.23,81.74,124.49,80.75,124.49z M80.75,123.93c0.86,0,1.62-0.23,2.29-0.68c0.67-0.45,1.2-1.06,1.58-1.82 c0.39-0.76,0.58-1.6,0.58-2.51c0-0.94-0.2-1.79-0.61-2.54c-0.41-0.76-0.96-1.36-1.65-1.8c-0.69-0.44-1.47-0.66-2.33-0.66 c-0.68,0-1.31,0.14-1.89,0.42c-0.58,0.28-1.07,0.67-1.48,1.16c-0.41,0.49-0.7,1.05-0.87,1.68c-0.17,0.63-0.2,1.3-0.07,1.99 c0.2,1.04,0.51,1.92,0.93,2.63c0.42,0.71,0.93,1.24,1.53,1.6C79.35,123.75,80.01,123.93,80.75,123.93z"></path> <path class="st5" d="M94.97,124.49c-1.13,0-2.1-0.37-2.92-1.1c-0.81-0.74-1.44-1.79-1.88-3.16c-0.44-1.37-0.66-3-0.66-4.89 s0.22-3.52,0.66-4.89c0.44-1.37,1.07-2.42,1.88-3.16c0.81-0.74,1.79-1.1,2.92-1.1c1.13,0,2.1,0.37,2.92,1.1 c0.82,0.74,1.44,1.79,1.88,3.16c0.44,1.37,0.66,3,0.66,4.89s-0.22,3.52-0.66,4.89c-0.44,1.37-1.07,2.42-1.88,3.16 C97.07,124.12,96.1,124.49,94.97,124.49z M94.97,123.93c1.52,0,2.72-0.76,3.59-2.29c0.88-1.52,1.31-3.63,1.31-6.3 c0-1.79-0.2-3.32-0.6-4.6c-0.4-1.28-0.96-2.27-1.69-2.96c-0.73-0.69-1.6-1.03-2.62-1.03c-1.52,0-2.72,0.76-3.59,2.29 c-0.88,1.52-1.31,3.63-1.31,6.3c0,1.79,0.2,3.32,0.6,4.6c0.4,1.28,0.96,2.27,1.7,2.96C93.09,123.59,93.96,123.93,94.97,123.93z"></path> <path class="st5" d="M105.93,110.54c-0.56,0-1.06-0.15-1.5-0.46c-0.44-0.31-0.79-0.74-1.05-1.28c-0.26-0.54-0.38-1.16-0.38-1.84 c0-0.69,0.13-1.31,0.38-1.85c0.26-0.55,0.6-0.98,1.05-1.29c0.44-0.31,0.94-0.47,1.5-0.47c0.55,0,1.05,0.16,1.49,0.47 c0.44,0.31,0.79,0.74,1.04,1.29c0.25,0.55,0.38,1.16,0.38,1.85c0,0.69-0.13,1.3-0.38,1.84c-0.25,0.54-0.6,0.97-1.04,1.28 C106.98,110.38,106.48,110.54,105.93,110.54z M105.93,110.16c0.49,0,0.92-0.14,1.3-0.43c0.38-0.29,0.67-0.68,0.88-1.16 c0.21-0.48,0.32-1.02,0.32-1.61c0-0.6-0.11-1.14-0.33-1.62c-0.22-0.48-0.51-0.87-0.89-1.15c-0.38-0.28-0.8-0.43-1.28-0.43 c-0.49,0-0.92,0.14-1.3,0.43c-0.38,0.29-0.68,0.67-0.9,1.15c-0.22,0.48-0.33,1.03-0.33,1.62s0.11,1.14,0.33,1.62 c0.22,0.48,0.52,0.87,0.9,1.15C105,110.01,105.44,110.16,105.93,110.16z"></path> </g> </svg> 