<?xml version="1.0" encoding="UTF-8"?> <!-- Generator: Adobe Illustrator 24.2.3, SVG Export Plug-In . SVG Version: 6.00 Build 0) --> <svg xmlns="http://www.w3.org/2000/svg" xmlns:xlink="http://www.w3.org/1999/xlink" version="1.1" id="Layer_1" x="0px" y="0px" viewBox="0 0 160 160" style="enable-background:new 0 0 160 160;" xml:space="preserve"> <style type="text/css"> .st0{fill:none;stroke:#000000;stroke-width:2;stroke-miterlimit:10;} .st1{fill:none;stroke:#000000;stroke-miterlimit:10;} .st2{fill:#FFFFFF;} .st3{fill:#FFFFFF;stroke:#000000;stroke-miterlimit:10;} .st4{stroke:#000000;stroke-width:0.25;} .st5{stroke:#000000;} </style> <g> <polygon class="st0" points="5,121.36 54.82,144.33 106.57,121.36 155,142.12 155,36.43 106.57,15.67 54.82,38.64 5,15.67 "></polygon> <polyline class="st0" points="91.27,46.96 106.57,40.17 139.32,54.21 139.32,112.19 106.57,98.16 54.82,121.13 24.19,107.01 24.19,49.02 54.82,63.15 81.75,51.19 "></polyline> <polyline class="st0" points="24.19,68.78 56.04,83.33 71.39,76.06 71.39,55.79 "></polyline> <line class="st0" x1="106.57" y1="40.17" x2="106.57" y2="66.59"></line> <line class="st0" x1="67.93" y1="115.31" x2="67.93" y2="90.7"></line> <polyline class="st0" points="129.77,84.33 106.57,75.36 106.57,98.16 "></polyline> <polyline class="st0" points="67.93,98.16 89.32,88.67 89.32,100.67 "></polyline> </g> </svg> 